# xmcd
# 
# Track frame offsets:
#     150
#     18580
#     47992
#     67234
#     107194
#     134776
#     159131
#     175871
# 
# Disc length: 2810
# 
# Revision: 0
# Processed by: cddbd v1.5.2PL0 Copyright (c) Steve Scherf et al.
# Submitted via: fre:ac v1.0.27
# 
DISCID=730af808
DTITLE=Eric Clapton - Timepeaces Vol.II - Live In The Seventies
DYEAR=0
DGENRE=blues
TTITLE0=Tulsa Time
TTITLE1=Knockin' On Heavens Door
TTITLE2=I'll Don't Be There By Morning
TTITLE3=Rambling OnMy Mind
TTITLE4=Presence Of The Lord
TTITLE5=Can't Find My Way Home
TTITLE6=Smile
TTITLE7=Blues Power
EXTD=
EXTT0=
EXTT1=
EXTT2=
EXTT3=
EXTT4=
EXTT5=
EXTT6=
EXTT7=
PLAYORDER=
